{"title":"Lust.Caution.2007.BluRay.720p.x264.DTS-WiKi","uid":6807738,"size":6978779714,"categoryP":"video","categoryS":"hd___movies","magnet":"?xt=urn:btih:f59d2d70b5ae416eeae92a298c7aea17216e774b&amp;dn=Lust.Caution.2007.BluRay.720p.x264.DTS-WiKi&amp;tr=udp%3A%2F%2Ftracker.openbittorrent.com%3A80&amp;tr=udp%3A%2F%2Fopen.demonii.com%3A1337&amp;tr=udp%3A%2F%2Ftracker.coppersurfer.tk%3A6969&amp;tr=udp%3A%2F%2Fexodus.desync.com%3A6969","seeders":4,"leechers":3,"uploader":"mfccorrea","files":3,"time":1320933247,"description":"Ang Lee's follow up to Brokeback Mountain is another tale of forbidden passion, but instead of dewy-eyed cowboys, the lovers are opponents in a deadly game of espionage. In Japanese occupied Shanghai, a young woman named Wong Chia Chi (Tei Wang) is recruited by the resistance to seduce the powerful Mr Yee (Tony Leung), a collaborator with the invaders. Over the course of several years, their relationship develops from mutual deception into a terrible sado-masochistic dependence.\n\nLust, Caution sees Ang Lee using the sedate formality of his earliest releases to tell a far more explosive story. Be warned: this is a film which proceeds at exactly its own pace, allotting as much screen time to the gossip of society ladies playing Mah-Jong as it does to a heart-stoppingly brutal killing. Much fuss has been made of the extremely frank sexual encounters between Leung and Tang, but the controversy is pointless: the sex is integral to the film. More than that even; the sex is the film. That title says it all really, Lust, Caution exists in the uneasy territory between orgasmic abandonment and suspicion. It's more like a chess game than a romance.\n\n   General\n      Complete name : Lust.Caution.2007.BluRay.720p.x264.DTS-WiKi.mkv\n      Format : Matroska\n      File size : 6.50 GiB\n      Duration : 2h 38mn\n      Overall bit rate : 5 880 Kbps\n      Encoded date : UTC 2008-08-30 01:36:44\n      Writing application : mkvmerge v2.2.0 ('Turn It On Again') built on Mar  4 2008 12:58:26\n      Writing library : libebml v0.7.7 + libmatroska v0.8.1\n   Video #1\n      ID : 1\n      Format : AVC\n      Format/Info : Advanced Video Codec\n      Format profile : &lt;a class=&quot;__cf_email__&quot; href=&quot;/cdn-cgi/l/email-protection&quot; data-cfemail=&quot;94dcfdf3fcd4d8a1baa5&quot;&gt;[email&amp;#160;protected]&lt;/a&gt;&lt;script cf-hash='f9e31' type=&quot;text/javascript&quot;&gt;\n/* &lt;![CDATA[ */!function(){try{var t=&quot;currentScript&quot;in document?document.currentScript:function(){for(var t=document.getElementsByTagName(&quot;script&quot;),e=t.length;e--;)if(t[e].getAttribute(&quot;cf-hash&quot;))return t[e]}();if(t&amp;&amp;t.previousSibling){var e,r,n,i,c=t.previousSibling,a=c.getAttribute(&quot;data-cfemail&quot;);if(a){for(e=&quot;&quot;,r=parseInt(a.substr(0,2),16),n=2;a.length-n;n+=2)i=parseInt(a.substr(n,2),16)^r,e+=String.fromCharCode(i);e=document.createTextNode(e),c.parentNode.replaceChild(e,c)}}}catch(u){}}();/* ]]&gt; */&lt;/script&gt;\n      Format settings, CABAC : Yes\n      Format settings, ReFrames : 5 frames\n      Muxing mode : Container profile=&lt;a class=&quot;__cf_email__&quot; href=&quot;/cdn-cgi/l/email-protection&quot; data-cfemail=&quot;e4b18a8f8a8b938aa4d1cad5&quot;&gt;[email&amp;#160;protected]&lt;/a&gt;&lt;script cf-hash='f9e31' type=&quot;text/javascript&quot;&gt;\n/* &lt;![CDATA[ */!function(){try{var t=&quot;currentScript&quot;in document?document.currentScript:function(){for(var t=document.getElementsByTagName(&quot;script&quot;),e=t.length;e--;)if(t[e].getAttribute(&quot;cf-hash&quot;))return t[e]}();if(t&amp;&amp;t.previousSibling){var e,r,n,i,c=t.previousSibling,a=c.getAttribute(&quot;data-cfemail&quot;);if(a){for(e=&quot;&quot;,r=parseInt(a.substr(0,2),16),n=2;a.length-n;n+=2)i=parseInt(a.substr(n,2),16)^r,e+=String.fromCharCode(i);e=document.createTextNode(e),c.parentNode.replaceChild(e,c)}}}catch(u){}}();/* ]]&gt; */&lt;/script&gt;\n      Codec ID : V_MPEG4/ISO/AVC\n      Duration : 2h 38mn\n      Bit rate : 4 253 Kbps\n      Nominal bit rate : 4 367 Kbps\n      Width : 1 280 pixels\n      Height : 720 pixels\n      Display aspect ratio : 16:9\n      Frame rate : 23.976 fps\n      Resolution : 24 bits\n      Colorimetry : 4:2:0\n      Scan type : Progressive\n      Bits/(Pixel*Frame) : 0.192\n      Stream size : 4.70 GiB (72%)      \n   Audio #2\n      ID : 2\n      Format : DTS\n      Format/Info : Digital Theater Systems\n      Codec ID : A_DTS\n      Duration : 2h 38mn\n      Bit rate mode : Constant\n      Bit rate : 1 510 Kbps\n      Channel(s) : 6 channels\n      Channel positions : Front: L C R, Surround: L R, LFE\n      Sampling rate : 48.0 KHz\n      Resolution : 16 bits\n      Stream size : 1.67 GiB (26%)\n      Language : Chinese\n &lt;a href=&quot;\nhttp://www.imdb.com/title/tt0808357/&quot; rel=&quot;nofollow&quot; target=&quot;_NEW&quot;&gt;\nhttp://www.imdb.com/title/tt0808357/&lt;/a&gt;\n\nLanguage: Mandarin | Japanese (some dialogue) | English | Hindi | Shanghainese (some dialogue) | Cantonese (some dialogue) \n\nSubtitles: English | Portuguese","torrent":{"xt":"urn:btih:f59d2d70b5ae416eeae92a298c7aea17216e774b","amp;dn":"Lust.Caution.2007.BluRay.720p.x264.DTS-WiKi","amp;tr":["udp%3A%2F%2Ftracker.openbittorrent.com%3A80","udp%3A%2F%2Fopen.demonii.com%3A1337","udp%3A%2F%2Ftracker.coppersurfer.tk%3A6969","udp%3A%2F%2Fexodus.desync.com%3A6969"],"infoHash":"f59d2d70b5ae416eeae92a298c7aea17216e774b","infoHashBuffer":{"type":"Buffer","data":[245,157,45,112,181,174,65,110,234,233,42,41,140,122,234,23,33,110,119,75]},"announce":[],"urlList":[]}}